<svg width="12" height="12" viewBox="0 0 12 12" fill="none" xmlns="http://www.w3.org/2000/svg">
<path fill-rule="evenodd" clip-rule="evenodd" d="M6 0.666748C6.17681 0.666748 6.34638 0.736989 6.4714 0.86202C6.59643 0.98705 6.66666 1.15663 6.66666 1.33345V5.33364H10.6667C10.8435 5.33364 11.013 5.40388 11.1381 5.52891C11.2631 5.65394 11.3333 5.82352 11.3333 6.00034C11.3333 6.17716 11.2631 6.34674 11.1381 6.47177C11.013 6.5968 10.8435 6.66704 10.6667 6.66704H6.66666V10.6672C6.66666 10.8441 6.59643 11.0136 6.4714 11.1387C6.34638 11.2637 6.17681 11.3339 6 11.3339C5.82319 11.3339 5.65362 11.2637 5.52859 11.1387C5.40357 11.0136 5.33333 10.8441 5.33333 10.6672V6.66704H1.33333C1.15652 6.66704 0.986951 6.5968 0.861926 6.47177C0.736902 6.34674 0.666664 6.17716 0.666664 6.00034C0.666664 5.82352 0.736902 5.65394 0.861926 5.52891C0.986951 5.40388 1.15652 5.33364 1.33333 5.33364H5.33333V1.33345C5.33333 1.15663 5.40357 0.98705 5.52859 0.86202C5.65362 0.736989 5.82319 0.666748 6 0.666748Z" fill="white"/>
</svg>
